<svg xmlns="http://www.w3.org/2000/svg" viewBox="0 0 24 24"><path d="M8.508 8.516H.75a.752.752 0 00-.715.54.788.788 0 00.283.868l6.673 4.855-3.186 8.157a.79.79 0 00.228.896.735.735 0 00.897.029L12 18.75l7.07 5.109a.732.732 0 00.896-.028.79.79 0 00.23-.896l-3.188-8.157 6.674-4.855a.788.788 0 00.283-.867.752.752 0 00-.715-.54h-8.427L12.723.57a.754.754 0 00-.694-.57.734.734 0 00-.735.512L8.508 8.516zm10.466 14.04l-3.178-8.132 6.746-4.908h-8.489l-2.086-7.893-2.748 7.893H1.458l6.746 4.908-3.178 8.133L12 17.518l6.974 5.039z"/></svg>
